<svg width="32" height="32" viewBox="0 0 34 34" fill="none" xmlns="http://www.w3.org/2000/svg">
<path d="M1 7.4C1 5.70261 1.67428 4.07475 2.87452 2.87452C4.07475 1.67428 5.70261 1 7.4 1H26.6C28.2974 1 29.9252 1.67428 31.1255 2.87452C32.3257 4.07475 33 5.70261 33 7.4V15.4H1V7.4Z" fill="#F1F5F9" stroke="#475569" stroke-width="2" stroke-linecap="round" stroke-linejoin="round"/>
<path d="M17 15.4H33V26.6C33 28.2974 32.3257 29.9253 31.1255 31.1255C29.9252 32.3257 28.2974 33 26.6 33H17V15.4ZM17 15.4H1V26.6C1 28.2974 1.67428 29.9253 2.87452 31.1255C4.07475 32.3257 5.70261 33 7.4 33H17V15.4Z" fill="#F1F5F9"/>
<path d="M17 15.4H33V26.6C33 28.2974 32.3257 29.9253 31.1255 31.1255C29.9252 32.3257 28.2974 33 26.6 33H17M17 15.4V33M17 15.4H1V26.6C1 28.2974 1.67428 29.9253 2.87452 31.1255C4.07475 32.3257 5.70261 33 7.4 33H17" stroke="#475569" stroke-width="2" stroke-linecap="round" stroke-linejoin="round"/>
<path d="M27.4 24.2H22.6Z" fill="#F1F5F9"/>
<path d="M27.4 24.2H22.6" stroke="#475569" stroke-width="2" stroke-linecap="round"/>
<path d="M6.60001 26.6L9.00001 24.2ZM9.00001 24.2L11.4 21.8ZM9.00001 24.2L11.4 26.6ZM9.00001 24.2L6.60001 21.8Z" fill="#F1F5F9"/>
<path d="M6.60001 26.6L9.00001 24.2M9.00001 24.2L11.4 21.8M9.00001 24.2L11.4 26.6M9.00001 24.2L6.60001 21.8" stroke="#475569" stroke-width="2" stroke-linecap="round"/>
</svg>
